<svg xmlns="http://www.w3.org/2000/svg" xmlns:xlink="http://www.w3.org/1999/xlink" width="424" height="424" preserveAspectRatio="xMidYMid meet" viewBox="0 0 128 128" style="width:100%;height:100%;transform:translate3d(0,0,0);content-visibility:visible;background-color:transparent"><defs><clipPath id="__lottie_element_33"><rect width="128" height="128" x="0" y="0"/></clipPath></defs><g clip-path="url(#__lottie_element_33)"><g opacity="1" style="display:block"><g opacity="1"><path fill-opacity="0" stroke="#FF8A00" stroke-linecap="round" stroke-linejoin="miter" stroke-miterlimit="4" stroke-opacity="1" stroke-width="5" d="M10,-27 C10,-27 14,-27 14,-27 C16.827999114990234,-27 18.243000030517578,-27 19.121000289916992,-26.121000289916992 C20,-25.243000030517578 20,-23.827999114990234 20,-21 C20,-21 20,-13.5 20,-13.5 M-10,-27 C-10,-27 -14,-27 -14,-27 C-16.827999114990234,-27 -18.243000030517578,-27 -19.121000289916992,-26.121000289916992 C-20,-25.243000030517578 -20,-23.827999114990234 -20,-21 C-20,-21 -20,-13.5 -20,-13.5 M-20,13.5 C-20,13.5 -20,21 -20,21 C-20,23.827999114990234 -20,25.243000030517578 -19.121000289916992,26.121000289916992 C-18.243000030517578,27 -16.827999114990234,27 -14,27 C-14,27 -10,27 -10,27 M10,27 C10,27 14,27 14,27 C16.827999114990234,27 18.243000030517578,27 19.121000289916992,26.121000289916992 C20,25.243000030517578 20,23.827999114990234 20,21 C20,21 20,13.5 20,13.5" transform="matrix(0.7400000095367432,0,0,0.7400000095367432,23.299999237060547,38.84000015258789) matrix(1,0,0,1,27,34)"/></g></g><g opacity="1" style="display:block"><g opacity="1"><path fill-opacity="0" stroke="#FF8A00" stroke-linecap="round" stroke-linejoin="miter" stroke-miterlimit="4" stroke-opacity="1" stroke-width="5" d="M-20,-13.5 C-20,-13.5 -20,-21 -20,-21 C-20,-23.827999114990234 -20,-25.243000030517578 -19.121000289916992,-26.121000289916992 C-18.243000030517578,-27 -16.827999114990234,-27 -14,-27 C-14,-27 14,-27 14,-27 C16.827999114990234,-27 18.243000030517578,-27 19.121000289916992,-26.121000289916992 C20,-25.243000030517578 20,-23.827999114990234 20,-21 C20,-21 20,21 20,21 C20,23.827999114990234 20,25.243000030517578 19.121000289916992,26.121000289916992 C18.243000030517578,27 16.827999114990234,27 14,27 C14,27 -14,27 -14,27 C-16.827999114990234,27 -18.243000030517578,27 -19.121000289916992,26.121000289916992 C-20,25.243000030517578 -20,23.827999114990234 -20,21 C-20,21 -20,13.5 -20,13.5" transform="matrix(0.7400000095367432,0,0,0.7400000095367432,64.73999786376953,38.84000015258789) matrix(1,0,0,1,27,34)"/></g></g><g opacity="1" style="display:block"><g opacity="1"><path fill-opacity="0" stroke="#F93920" stroke-linecap="round" stroke-linejoin="round" stroke-opacity="1" stroke-width="6" d="M-4,8 C-4,8 4,0 4,0 C4,0 -4,-8 -4,-8" transform="matrix(0.7400000095367432,0,0,0.7400000095367432,40.689998626708984,52.900001525878906) matrix(1,0,0,1,58.5,15)"/></g><g opacity="1"><path fill-opacity="0" stroke="#F93920" stroke-linecap="round" stroke-linejoin="miter" stroke-miterlimit="4" stroke-opacity="1" stroke-width="6" d="M3.5,15 C3.5,15 62.5,15 62.5,15" transform="matrix(0.7400000095367432,0,0,0.7400000095367432,40.689998626708984,52.900001525878906) matrix(1,0,0,1,0,0)"/></g></g></g></svg>